Coordinates
version=1
nRows=16
nColumns=63
inDegrees=yes

Units are S.I. units (second, meters, Newtons, ...)
If the header above contains a line with 'inDegrees', this indicates whether rotational values are in degrees (yes) or radians (no).

endheader
time	pelvis_tilt	pelvis_list	pelvis_rotation	pelvis_tx	pelvis_ty	pelvis_tz	hip_flexion_r	hip_adduction_r	hip_rotation_r	knee_angle_r	knee_angle_r_beta	ankle_angle_r	subtalar_angle_r	mtp_angle_r	hip_flexion_l	hip_adduction_l	hip_rotation_l	knee_angle_l	knee_angle_l_beta	ankle_angle_l	subtalar_angle_l	mtp_angle_l	L5_S1_Flex_Ext	L5_S1_Lat_Bending	L5_S1_axial_rotation	L4_L5_Flex_Ext	L4_L5_Lat_Bending	L4_L5_axial_rotation	L3_L4_Flex_Ext	L3_L4_Lat_Bending	L3_L4_axial_rotation	L2_L3_Flex_Ext	L2_L3_Lat_Bending	L2_L3_axial_rotation	L1_L2_Flex_Ext	L1_L2_Lat_Bending	L1_L2_axial_rotation	L1_T12_Flex_Ext	L1_T12_Lat_Bending	L1_T12_axial_rotation	Abs_r3	Abs_r2	Abs_r1	Abs_t1	Abs_t2	neck_flexion	neck_bending	neck_rotation	arm_flex_r	arm_add_r	arm_rot_r	elbow_flex_r	pro_sup_r	wrist_flex_r	wrist_dev_r	arm_flex_l	arm_add_l	arm_rot_l	elbow_flex_l	pro_sup_l	wrist_flex_l	wrist_dev_l
3.382979	6.136717	6.737118	167.616576	0.292005	0.803939	0.850294	15.461190	-2.758712	-23.433687	23.550711	0.411037	12.925505	5.436353	0.000000	17.313996	-7.261266	-11.160989	21.115422	0.368534	13.717495	16.888977	0.000000	-1.419376	0.835970	-2.018406	-2.635924	1.111840	-2.144556	-2.331893	2.032577	-2.144556	-1.622205	2.032577	-1.766105	-1.318033	1.704710	-1.639955	-0.811032	1.294917	-1.513804	-10.138464	9.456658	-11.225768	0.000000	0.000000	-25.867445	-4.415933	-15.950596	51.693833	-2.689089	176.223478	0.053913	0.673915	-69.912606	-24.636589	43.884759	0.961358	113.447916	0.069091	0.691164	-69.894216	-24.497378
3.404255	6.675050	6.859928	167.819842	0.293414	0.802884	0.849908	15.842705	-2.601104	-24.225260	23.691662	0.413498	12.240585	5.097534	0.000000	18.248013	-7.217655	-10.798386	21.375805	0.373078	13.875459	16.405329	0.000000	-1.438030	0.819809	-1.891496	-2.670566	1.090346	-2.009714	-2.362540	1.993284	-2.009714	-1.643525	1.993284	-1.655059	-1.335355	1.671755	-1.536840	-0.821690	1.269884	-1.418622	-10.271706	9.273844	-10.519931	0.000000	0.000000	-26.307091	-4.115847	-18.083238	51.136029	-4.146497	174.602792	0.053972	0.648508	-69.913003	-24.627928	44.712150	1.867523	114.461945	0.069296	0.691202	-69.894143	-24.490613
3.425532	7.332147	6.875685	167.960743	0.293909	0.801412	0.850250	16.406498	-2.511500	-24.543958	23.866950	0.416557	11.751816	3.900747	0.000000	19.255784	-6.999779	-10.306391	21.563596	0.376356	13.938828	15.516572	0.000000	-1.440249	0.807989	-1.782943	-2.674686	1.074625	-1.894377	-2.366185	1.964543	-1.894377	-1.646060	1.964543	-1.560075	-1.337415	1.647650	-1.448641	-0.822958	1.251574	-1.337207	-10.287552	9.140129	-9.916194	0.000000	0.000000	-26.681229	-4.260493	-20.248405	50.405785	-5.659422	172.706760	0.054826	0.627389	-69.912059	-24.611139	45.145696	2.894569	115.269312	0.069949	0.698961	-69.893142	-24.484493
3.446809	8.097510	6.780927	168.062614	0.293604	0.799549	0.851400	17.144056	-2.513969	-24.442525	24.057713	0.419886	11.502655	2.000531	0.000000	20.312729	-6.620565	-9.720661	21.669018	0.378196	13.777962	14.124272	0.000000	-1.426604	0.798574	-1.692751	-2.649346	1.062103	-1.798548	-2.343768	1.941652	-1.798548	-1.630466	1.941652	-1.481158	-1.324744	1.628452	-1.375361	-0.815162	1.236991	-1.269564	-10.190090	9.033625	-9.414576	0.000000	0.000000	-27.020511	-4.771292	-22.483724	49.576244	-7.210755	170.722464	0.056255	0.608583	-69.910229	-24.586076	45.317117	4.118276	115.994051	0.071012	0.712992	-69.890983	-24.478999
3.468085	8.950613	6.558776	168.082961	0.292646	0.797381	0.853210	18.045972	-2.596740	-23.848687	24.247122	0.423192	11.464193	-0.416047	0.000000	21.375706	-6.107519	-9.165504	21.675093	0.378302	13.334006	12.219496	0.000000	-1.398861	0.789434	-1.615973	-2.597824	1.049947	-1.716971	-2.298188	1.919429	-1.716971	-1.598758	1.919429	-1.413976	-1.298982	1.609813	-1.312978	-0.799309	1.222833	-1.211979	-9.991921	8.930231	-8.987554	0.000000	0.000000	-27.302839	-5.592732	-24.691787	48.714704	-8.731929	168.878362	0.058090	0.594270	-69.907829	-24.554745	45.263154	5.493732	116.612183	0.072450	0.732537	-69.887432	-24.473348
3.489362	9.876124	6.192159	168.014094	0.291119	0.795046	0.855475	19.095175	-2.751829	-22.721675	24.419900	0.426208	11.551956	-3.113655	0.000000	22.412132	-5.464071	-8.641827	21.566113	0.376400	12.558930	9.765269	0.000000	-1.357414	0.781076	-1.561262	-2.520853	1.038831	-1.658841	-2.230095	1.899108	-1.658841	-1.551388	1.899108	-1.366105	-1.260494	1.592770	-1.268526	-0.775626	1.209887	-1.170947	-9.695869	8.835687	-8.683272	0.000000	0.000000	-27.517676	-6.755571	-26.716174	47.872854	-10.104294	167.334978	0.060232	0.586566	-69.905006	-24.521422	44.924415	6.869782	117.029597	0.074182	0.760172	-69.882597	-24.467616
3.510638	10.860204	5.666675	167.833218	0.289118	0.792666	0.857909	20.275881	-2.959046	-21.059295	24.571101	0.428847	11.667163	-5.792566	0.000000	23.392457	-4.728994	-8.235770	21.328115	0.372246	11.525131	7.002337	0.000000	-1.302627	0.773265	-1.532934	-2.419109	1.028443	-1.628743	-2.140086	1.880117	-1.628743	-1.488772	1.880117	-1.341318	-1.209619	1.576842	-1.245509	-0.744321	1.197788	-1.149701	-9.304535	8.747330	-8.525721	0.000000	0.000000	-27.651291	-8.238704	-28.400591	47.089067	-11.220147	166.219046	0.062547	0.582446	-69.901838	-24.485634	44.247111	8.092966	117.223930	0.076090	0.804392	-69.876679	-24.462345
3.531915	11.880908	4.997897	167.507000	0.286785	0.790337	0.860202	21.559790	-3.154168	-18.798538	24.684122	0.430819	11.695661	-8.372843	0.000000	24.281160	-3.949379	-7.905488	20.964017	0.365891	10.334442	4.092730	0.000000	-1.238300	0.766928	-1.529010	-2.299647	1.020014	-1.624574	-2.034403	1.864709	-1.624574	-1.415253	1.864709	-1.337884	-1.149885	1.563919	-1.242321	-0.707565	1.187971	-1.146758	-8.845054	8.675642	-8.503897	0.000000	0.000000	-27.669372	-9.945356	-29.594786	46.396161	-12.011205	165.494093	0.064935	0.583735	-69.898420	-24.449413	43.233923	9.048511	117.326351	0.078023	0.862124	-69.870052	-24.456842
3.553191	12.915327	4.206826	167.036984	0.284231	0.788128	0.862120	22.900569	-3.316183	-16.080920	24.741586	0.431822	11.589278	-10.634157	0.000000	25.050827	-3.165663	-7.584759	20.478702	0.357421	9.108868	1.238805	0.000000	-1.167080	0.762634	-1.554313	-2.167384	1.014304	-1.651458	-1.917395	1.854269	-1.651458	-1.333856	1.854269	-1.360024	-1.083750	1.555164	-1.262879	-0.666869	1.181321	-1.165735	-8.336335	8.627072	-8.644623	0.000000	0.000000	-27.537738	-11.781618	-30.175376	45.814703	-12.435889	165.136739	0.067333	0.589126	-69.894804	-24.413657	41.907921	9.649049	117.545304	0.079738	0.927592	-69.863275	-24.449615
3.574468	13.934753	3.325570	166.432789	0.281558	0.786090	0.863562	24.242500	-3.423216	-13.037170	24.719229	0.431432	11.291893	-12.410471	0.000000	25.683722	-2.408616	-7.208822	19.890234	0.347150	7.975279	-1.403362	0.000000	-1.092627	0.761170	-1.612588	-2.029118	1.012356	-1.713375	-1.795077	1.850708	-1.713375	-1.248764	1.850708	-1.411015	-1.014614	1.552177	-1.310228	-0.624327	1.179052	-1.209441	-7.804527	8.610503	-8.968732	0.000000	0.000000	-27.249403	-13.644323	-30.073896	45.348840	-12.498262	165.142033	0.069713	0.600650	-69.891041	-24.380852	40.307773	9.860837	118.018382	0.080999	1.000256	-69.857262	-24.440927
3.595745	14.920718	2.392995	165.736685	0.278848	0.784242	0.864475	25.535517	-3.461186	-9.820977	24.598916	0.429332	10.789060	-13.643150	0.000000	26.188239	-1.695895	-6.707858	19.235252	0.335718	7.024083	-3.757634	0.000000	-1.017871	0.761900	-1.716798	-1.890288	1.013328	-1.824098	-1.672260	1.852485	-1.824098	-1.163325	1.852485	-1.502198	-0.945195	1.553667	-1.394898	-0.581611	1.180184	-1.287598	-7.270550	8.618770	-9.548314	0.000000	0.000000	-26.814403	-15.468320	-29.298855	44.970907	-12.212198	165.536855	0.071979	0.617614	-69.887241	-24.353260	38.438085	9.677182	118.772629	0.081724	1.074232	-69.853230	-24.431958
3.617021	15.853334	1.452159	164.954930	0.276213	0.782584	0.864783	26.741025	-3.416689	-6.602184	24.380689	0.425523	10.124576	-14.280105	0.000000	26.570190	-1.061439	-6.108880	18.558478	0.323907	6.277334	-5.849764	0.000000	-0.947506	0.762817	-1.876649	-1.759613	1.014547	-1.993939	-1.556657	1.854714	-1.993939	-1.082904	1.854714	-1.642067	-0.879854	1.555537	-1.524777	-0.541405	1.181604	-1.407486	-6.767939	8.629140	-10.437356	0.000000	0.000000	-26.235182	-17.206298	-27.872913	44.660220	-11.625630	166.469535	0.074012	0.636199	-69.883604	-24.328399	36.269108	9.136045	119.682324	0.081772	1.150010	-69.854304	-24.426030
3.638298	16.704966	0.531614	164.129931	0.273742	0.781126	0.864401	27.812978	-3.302362	-3.613097	24.071671	0.420130	9.381677	-14.294833	0.000000	26.834680	-0.521407	-5.443525	17.897348	0.312368	5.720133	-7.725965	0.000000	-0.884356	0.759284	-2.099151	-1.642338	1.009847	-2.230348	-1.452908	1.846122	-2.230348	-1.010730	1.846122	-1.836758	-0.821213	1.548331	-1.705561	-0.505321	1.176130	-1.574364	-6.316866	8.589169	-11.674851	0.000000	0.000000	-25.575811	-18.823545	-25.903903	44.364991	-10.826822	167.947093	0.075750	0.657172	-69.880472	-24.308143	33.752322	8.264102	120.703707	0.080666	1.233179	-69.882010	-24.426182
3.659574	17.445357	-0.393105	163.220290	0.271582	0.779867	0.862980	28.744465	-3.130783	-0.919268	23.709607	0.413811	8.646602	-13.734448	0.000000	26.976686	-0.092516	-4.914852	17.266013	0.301349	5.379627	-9.291660	0.000000	-0.828257	0.735185	-2.362614	-1.538156	0.977796	-2.510278	-1.360743	1.787529	-2.510278	-0.946615	1.787529	-2.067288	-0.769119	1.499189	-1.919624	-0.473266	1.138802	-1.771961	-5.916155	8.316560	-13.140152	0.000000	0.000000	-24.884707	-20.055418	-23.587400	43.981453	-9.933583	169.983318	0.076935	0.674166	-69.878669	-24.293548	30.821612	7.046107	121.804005	0.078361	1.353769	-70.596658	-24.412523
3.680851	18.086358	-1.349214	162.201113	0.269678	0.778766	0.860178	29.554181	-2.886748	1.516974	23.303263	0.406719	7.978947	-12.709794	0.000000	27.019807	0.213860	-4.605611	16.655293	0.290690	5.327373	-10.499171	0.000000	-0.772251	0.679951	-2.599143	-1.434148	0.904335	-2.761590	-1.268732	1.653234	-2.761590	-0.882606	1.653234	-2.274250	-0.717113	1.386557	-2.111804	-0.441264	1.053245	-1.949357	-5.516115	7.691746	-14.455655	0.000000	0.000000	-24.264276	-20.727798	-21.433803	43.202467	-9.069256	171.999102	0.077179	0.689096	-69.880134	-24.300618	27.564340	5.464133	122.940878	0.075768	1.508233	-72.039514	-24.404149
3.702128	18.661958	-2.372257	161.029923	0.267986	0.777709	0.855797	30.304172	-2.566091	3.761004	22.896136	0.399613	7.434699	-11.349910	0.000000	27.006423	0.388880	-4.619770	16.057366	0.280254	5.658390	-11.266776	0.000000	-0.708799	0.588135	-2.732109	-1.316311	0.782220	-2.902866	-1.164486	1.429992	-2.902866	-0.810086	1.429992	-2.390596	-0.658191	1.199325	-2.219839	-0.405008	0.911021	-2.049082	-5.062881	6.653103	-15.195171	0.000000	0.000000	-23.717708	-20.635798	-19.812398	41.713724	-8.292552	173.466647	0.075808	0.697529	-69.892045	-24.396258	24.174579	3.465798	123.887567	0.072481	1.657439	-72.904725	-24.549116
